<?xml version="1.0" encoding="UTF-8"?>
<svg id="_Слой_2" data-name="Слой 2" xmlns="http://www.w3.org/2000/svg" viewBox="0 0 1344 184.5">
  <defs>
    <style>
      .cls-1 {
        fill: none;
      }

      .cls-1, .cls-2 {
        stroke: #000;
        stroke-miterlimit: 10;
      }
    </style>
  </defs>
  <g id="_Палуба_Юта_База" data-name="Палуба Юта База">
    <path class="cls-1" d="m78.5,24c-31,11-41,15-41,15l-11,6-8,7-6,7-4,6-4,6-3,8-1,7v11.63l1,9.37,3,6,2,4,3,5,4,5,4,5,4,3,4,3,4,3,5,3,4,2,4,2,11,5,11,4,12,3,12,3,10,2,12,2,15,2,13,1,10,1,8,1,20,2,15,2,17,1,21,1,18,1,12,1h15l14,1,21,1h19s27,0,27,0l17,1h59s27.46,0,27.46,0l16.54,1h290.35l38.65-1,31,1h7v-5h8l2-1v-6.8l-1-1.2v-2l1-1v-5.84l-1-1.16v-1l1-2v-5.65l-1-.35-1-1h-8v-2l-1-1h-36v-1h28v-11h-27l-1-1V51l1-1h27v-13h8l1-1v-2h9l1-1.1v-6l-1-.9v-2l1-1.59v-5.3l-1-1.12v-2l1-1v-6l-1-1h-9s0-5,0-5l-65.29-.5h-310.04l-112.67,1.5-82,2-21,1-21,1-21,2-24,2-19,1-22,3-22,2-21,3-11,2-12,3Z"/>
    <polygon class="cls-1" points="1155.5 35.5 1183.91 35.5 1183.5 15 1192.5 16 1201.5 18 1209.5 20 1218.5 21 1225.5 23 1231.5 24 1237.5 25 1243.5 27 1248.5 28 1252.5 29 1259.5 31 1270.5 35 1280.5 39 1287.5 41 1293.5 43 1298.5 45 1305.5 48 1310.5 51 1316.5 53 1322.5 56 1323.71 56.52 1329.5 59 1334.5 62 1343.5 66 1343.5 118 1333.5 123 1320.5 129 1309.5 134 1298.5 139 1289.5 142 1279.5 146 1270.5 149 1261.5 152 1250.5 155 1240.5 158 1228.5 161 1218.5 163 1206.5 165 1197.5 167 1189.5 169 1183.5 169 1183.5 149 1155.5 149 1155.5 137 1183.5 137 1183.5 124 1183.5 48 1183.5 47 1155.5 47.12 1155.5 35.5"/>
    <polyline class="cls-1" points="1321.5 61 1323.29 56.34 1321.5 61 1339.5 70 1340.5 71 1340.5 114 1325.5 121 1321.5 122.85 1323.07 127.81"/>
    <polyline class="cls-1" points="1306.5 103 1297.34 103 1296.7 103 1296.5 103 1296.5 105.68 1285.5 106 1285.5 103 1261.5 103 1261.5 95.97 1285.3 96 1285.5 96 1285.5 94 1296.5 94 1296.5 96 1296.5 97 1306.5 97 1306.5 103 1285.5 103 1285.5 96 1296.5 96 1296.5 103"/>
    <polyline class="cls-1" points="1306.5 88 1296.5 88 1296.5 90 1285.5 90 1285.5 87.81 1261.5 88 1261.5 81 1285.47 81 1285.5 79 1296.5 79 1296.5 81 1306.5 81 1306.5 87.71"/>
    <polyline class="cls-1" points="1296.5 88 1285.34 88 1285.47 81 1296.5 81 1296.5 88"/>
    <polygon class="cls-1" points="1225.5 85 1195.12 85 1195.12 81.39 1225.5 81.23 1225.5 85"/>
    <polyline class="cls-1" points="1225.5 103 1195.05 103 1195.05 99.71 1225.5 100 1225.5 103"/>
    <g id="_Круги_с_крестом" data-name="Круги с крестом">
      <circle class="cls-1" cx="1194.5" cy="27.5" r="9.5"/>
      <circle class="cls-1" cx="1194.5" cy="27.5" r="7.5"/>
      <circle class="cls-1" cx="1194.5" cy="27.5" r="3"/>
      <line class="cls-1" x1="1194.5" y1="42.78" x2="1194.5" y2="11.84"/>
      <line class="cls-1" x1="1209.16" y1="28" x2="1179.16" y2="28"/>
    </g>
    <g id="_Круги_с_крестом-2" data-name="Круги с крестом">
      <circle class="cls-1" cx="1194.47" cy="157.11" r="9.5"/>
      <circle class="cls-1" cx="1194.47" cy="157.11" r="7.5"/>
      <circle class="cls-1" cx="1194.47" cy="157.11" r="3"/>
      <line class="cls-1" x1="1194.47" y1="143.83" x2="1194.47" y2="172.77"/>
      <line class="cls-1" x1="1182.47" y1="156.61" x2="1208.65" y2="156.61"/>
    </g>
    <polyline id="_Лестница" data-name="Лестница" class="cls-1" points="1158.35 47.11 1158.35 35.34 1160.78 35.34 1160.78 47.11 1163.36 47.11 1163.36 35.34 1166.07 35.34 1166.07 47.11 1168.63 47.11 1168.63 35.5 1171.28 35.5 1171.28 47 1173.86 47 1173.86 35.5 1176.48 35.5 1176.48 47.11 1178.9 47.11 1178.9 35.69 1181.59 35.69 1181.59 47.01 1183.5 47.01 1183.5 36"/>
    <polyline id="_Лестница-2" data-name="Лестница" class="cls-1" points="1158.43 148.58 1158.43 136.82 1160.85 136.82 1160.85 148.58 1163.44 148.58 1163.44 136.82 1166.15 136.82 1166.15 148.58 1168.7 148.58 1168.7 136.98 1171.35 136.98 1171.35 148.48 1173.94 148.48 1173.94 136.98 1176.55 136.98 1176.55 148.58 1178.98 148.58 1178.98 137.17 1181.66 137.17 1181.66 148.49 1183.57 148.49 1183.57 137.48"/>
    <g>
      <circle class="cls-1" cx="1195" cy="64.5" r="3.5"/>
      <polyline class="cls-1" points="1191.5 76 1189.5 75 1189.5 72 1192.85 72 1195.12 72.65 1198.5 72.84 1201.5 71 1201.5 68 1198.5 67 1197.78 66.63"/>
    </g>
    <g>
      <circle class="cls-1" cx="1194.33" cy="116.83" r="3.5"/>
      <polyline class="cls-1" points="1196.5 120 1199.5 122 1202.5 123 1204.5 122 1204.5 117 1206.5 116 1206.5 114 1203.38 114 1204.36 116.83"/>
    </g>
    <polygon class="cls-1" points="1050.5 131 955.5 131 954.26 131 952.5 129 951.5 128 951.5 56 954.5 53 1050.5 53 1052.5 55 1052.5 129 1050.5 131"/>
    <polyline class="cls-1" points="953.5 56 953.5 128 955.5 129 1049.5 129 1050.5 128 1050.5 56 1049.5 55 955.5 55 953.5 56"/>
    <g id="_Бублики" data-name="Бублики">
      <circle class="cls-1" cx="1016.7" cy="68.5" r="3.5"/>
      <rect class="cls-2" x="1015.7" y="66" width="2" height="5"/>
    </g>
    <g id="_Бублики-2" data-name="Бублики">
      <circle class="cls-1" cx="1000.8" cy="63.03" r="3.5"/>
      <rect class="cls-2" x="999.8" y="60.53" width="2" height="5"/>
    </g>
    <g id="_Бублики-3" data-name="Бублики">
      <circle class="cls-1" cx="973.18" cy="86.47" r="3.5"/>
      <rect class="cls-2" x="972.18" y="83.97" width="2" height="5"/>
    </g>
    <g id="_Бублики-4" data-name="Бублики">
      <circle class="cls-1" cx="956.18" cy="66.53" r="3.5"/>
      <rect class="cls-2" x="955.18" y="64.03" width="2" height="5"/>
    </g>
    <g id="_Бублики-5" data-name="Бублики">
      <circle class="cls-1" cx="1048.37" cy="84.98" r="3.5"/>
      <rect class="cls-2" x="1047.37" y="82.48" width="2" height="5"/>
    </g>
    <g id="_Бублики-6" data-name="Бублики">
      <circle class="cls-1" cx="1048.74" cy="97.1" r="3.5"/>
      <rect class="cls-2" x="1047.74" y="94.6" width="2" height="5"/>
    </g>
    <g id="_Бублики-7" data-name="Бублики">
      <circle class="cls-1" cx="1017.81" cy="114.67" r="3.5"/>
      <rect class="cls-2" x="1016.81" y="112.17" width="2" height="5"/>
    </g>
    <g id="_Бублики-8" data-name="Бублики">
      <circle class="cls-1" cx="1001.81" cy="120.67" r="3.5"/>
      <rect class="cls-2" x="1000.81" y="118.17" width="2" height="5"/>
    </g>
    <g id="_Бублики-9" data-name="Бублики">
      <circle class="cls-1" cx="956.77" cy="117.73" r="3.5"/>
      <rect class="cls-2" x="955.77" y="115.23" width="2" height="5"/>
    </g>
    <polygon class="cls-1" points="861.5 122 861.5 61 863.5 59 935.5 59 937.5 61 937.5 124 935.5 125 863.5 125 861.5 123.9 861.5 122"/>
    <polyline id="_Мини_лестница" data-name="Мини лестница" class="cls-1" points="937.5 68.14 942.4 68.14 940.47 68.14 940.47 76 942.5 76 937.89 76"/>
    <polyline id="_Мини_лестница-2" data-name="Мини лестница" class="cls-1" points="952.26 115.73 947.35 115.73 949.29 115.73 949.29 107.87 947.26 107.87 951.86 107.87"/>
    <g id="_Бублики-10" data-name="Бублики">
      <circle class="cls-1" cx="932.6" cy="116.56" r="3.5"/>
      <rect class="cls-2" x="931.6" y="114.06" width="2" height="5"/>
    </g>
    <g id="_Бублики-11" data-name="Бублики">
      <circle class="cls-1" cx="932.61" cy="67.62" r="3.5"/>
      <rect class="cls-2" x="931.61" y="65.12" width="2" height="5"/>
    </g>
    <g id="_6_бочке" data-name="6 бочке">
      <g id="_3_бочки" data-name="3 бочки">
        <g id="_Бочка" data-name="Бочка">
          <polyline class="cls-1" points="825.5 6 810.5 6 809.5 7 808.5 9 808.5 11.84 809.5 14 810.5 15 820.62 15 825.5 15 826.5 14 827.5 12 827.5 8.99 827.5 8 825.5 6 824.5 6 824.5 15"/>
          <line class="cls-1" x1="820.5" y1="6" x2="820.5" y2="15"/>
          <line class="cls-1" x1="816.02" y1="6" x2="816.02" y2="15"/>
          <line class="cls-1" x1="811.3" y1="15" x2="811.3" y2="6"/>
        </g>
        <g id="_Бочка-2" data-name="Бочка">
          <polyline class="cls-1" points="825.74 15.91 810.74 15.91 809.74 16.91 808.74 18.91 808.74 21.75 809.74 23.91 810.74 24.91 820.86 24.91 825.74 24.91 826.74 23.91 827.74 21.91 827.74 18.9 827.74 17.91 825.74 15.91 824.74 15.91 824.74 24.91"/>
          <line class="cls-1" x1="820.74" y1="15.91" x2="820.74" y2="24.91"/>
          <line class="cls-1" x1="816.26" y1="15.91" x2="816.26" y2="24.91"/>
          <line class="cls-1" x1="811.54" y1="24.91" x2="811.54" y2="15.91"/>
        </g>
        <g id="_Бочка-3" data-name="Бочка">
          <polyline class="cls-1" points="825.7 25.79 810.7 25.79 809.7 26.79 808.7 28.79 808.7 31.63 809.7 33.79 810.7 34.79 820.82 34.79 825.7 34.79 826.7 33.79 827.7 31.79 827.7 28.78 827.7 27.79 825.7 25.79 824.7 25.79 824.7 34.79"/>
          <line class="cls-1" x1="820.7" y1="25.79" x2="820.7" y2="34.79"/>
          <line class="cls-1" x1="816.22" y1="25.79" x2="816.22" y2="34.79"/>
          <line class="cls-1" x1="811.5" y1="34.79" x2="811.5" y2="25.79"/>
        </g>
      </g>
      <g id="_3_бочки-2" data-name="3 бочки">
        <g id="_Бочка-4" data-name="Бочка">
          <polyline class="cls-1" points="850.72 5.72 835.72 5.72 834.72 6.72 833.72 8.72 833.72 11.56 834.72 13.72 835.72 14.72 845.84 14.72 850.72 14.72 851.72 13.72 852.72 11.72 852.72 8.71 852.72 7.72 850.72 5.72 849.72 5.72 849.72 14.72"/>
          <line class="cls-1" x1="845.72" y1="5.72" x2="845.72" y2="14.72"/>
          <line class="cls-1" x1="841.24" y1="5.72" x2="841.24" y2="14.72"/>
          <line class="cls-1" x1="836.52" y1="14.72" x2="836.52" y2="5.72"/>
        </g>
        <g id="_Бочка-5" data-name="Бочка">
          <polyline class="cls-1" points="850.96 15.63 835.96 15.63 834.96 16.63 833.96 18.63 833.96 21.47 834.96 23.63 835.96 24.63 846.08 24.63 850.96 24.63 851.96 23.63 852.96 21.63 852.96 18.62 852.96 17.63 850.96 15.63 849.96 15.63 849.96 24.63"/>
          <line class="cls-1" x1="845.96" y1="15.63" x2="845.96" y2="24.63"/>
          <line class="cls-1" x1="841.48" y1="15.63" x2="841.48" y2="24.63"/>
          <line class="cls-1" x1="836.76" y1="24.63" x2="836.76" y2="15.63"/>
        </g>
        <g id="_Бочка-6" data-name="Бочка">
          <polyline class="cls-1" points="850.92 25.51 835.92 25.51 834.92 26.51 833.92 28.51 833.92 31.35 834.92 33.51 835.92 34.51 846.04 34.51 850.92 34.51 851.92 33.51 852.92 31.51 852.92 28.5 852.92 27.51 850.92 25.51 849.92 25.51 849.92 34.51"/>
          <line class="cls-1" x1="845.92" y1="25.51" x2="845.92" y2="34.51"/>
          <line class="cls-1" x1="841.44" y1="25.51" x2="841.44" y2="34.51"/>
          <line class="cls-1" x1="836.72" y1="34.51" x2="836.72" y2="25.51"/>
        </g>
      </g>
    </g>
    <g id="_6_бочке-2" data-name="6 бочке">
      <g id="_3_бочки-3" data-name="3 бочки">
        <g id="_Бочка-7" data-name="Бочка">
          <polyline class="cls-1" points="825.28 149.71 810.28 149.71 809.28 150.71 808.28 152.71 808.28 155.55 809.28 157.71 810.28 158.71 820.4 158.71 825.28 158.71 826.28 157.71 827.28 155.71 827.28 152.7 827.28 151.71 825.28 149.71 824.28 149.71 824.28 158.71"/>
          <line class="cls-1" x1="820.28" y1="149.71" x2="820.28" y2="158.71"/>
          <line class="cls-1" x1="815.8" y1="149.71" x2="815.8" y2="158.71"/>
          <line class="cls-1" x1="811.08" y1="158.71" x2="811.08" y2="149.71"/>
        </g>
        <g id="_Бочка-8" data-name="Бочка">
          <polyline class="cls-1" points="825.52 159.62 810.52 159.62 809.52 160.62 808.52 162.62 808.52 165.46 809.52 167.62 810.52 168.62 820.64 168.62 825.52 168.62 826.52 167.62 827.52 165.62 827.52 162.61 827.52 161.62 825.52 159.62 824.52 159.62 824.52 168.62"/>
          <line class="cls-1" x1="820.52" y1="159.62" x2="820.52" y2="168.62"/>
          <line class="cls-1" x1="816.04" y1="159.62" x2="816.04" y2="168.62"/>
          <line class="cls-1" x1="811.32" y1="168.62" x2="811.32" y2="159.62"/>
        </g>
        <g id="_Бочка-9" data-name="Бочка">
          <polyline class="cls-1" points="825.48 169.5 810.48 169.5 809.48 170.5 808.48 172.5 808.48 175.34 809.48 177.5 810.48 178.5 820.6 178.5 825.48 178.5 826.48 177.5 827.48 175.5 827.48 172.49 827.48 171.5 825.48 169.5 824.48 169.5 824.48 178.5"/>
          <line class="cls-1" x1="820.48" y1="169.5" x2="820.48" y2="178.5"/>
          <line class="cls-1" x1="816" y1="169.5" x2="816" y2="178.5"/>
          <line class="cls-1" x1="811.28" y1="178.5" x2="811.28" y2="169.5"/>
        </g>
      </g>
      <g id="_3_бочки-4" data-name="3 бочки">
        <g id="_Бочка-10" data-name="Бочка">
          <polyline class="cls-1" points="850.5 149.44 835.5 149.44 834.5 150.44 833.5 152.44 833.5 155.28 834.5 157.44 835.5 158.44 845.62 158.44 850.5 158.44 851.5 157.44 852.5 155.44 852.5 152.43 852.5 151.44 850.5 149.44 849.5 149.44 849.5 158.44"/>
          <line class="cls-1" x1="845.5" y1="149.44" x2="845.5" y2="158.44"/>
          <line class="cls-1" x1="841.02" y1="149.44" x2="841.02" y2="158.44"/>
          <line class="cls-1" x1="836.3" y1="158.44" x2="836.3" y2="149.44"/>
        </g>
        <g id="_Бочка-11" data-name="Бочка">
          <polyline class="cls-1" points="850.74 159.35 835.74 159.35 834.74 160.35 833.74 162.35 833.74 165.19 834.74 167.35 835.74 168.35 845.86 168.35 850.74 168.35 851.74 167.35 852.74 165.35 852.74 162.34 852.74 161.35 850.74 159.35 849.74 159.35 849.74 168.35"/>
          <line class="cls-1" x1="845.74" y1="159.35" x2="845.74" y2="168.35"/>
          <line class="cls-1" x1="841.26" y1="159.35" x2="841.26" y2="168.35"/>
          <line class="cls-1" x1="836.54" y1="168.35" x2="836.54" y2="159.35"/>
        </g>
        <g id="_Бочка-12" data-name="Бочка">
          <polyline class="cls-1" points="850.7 169.22 835.7 169.22 834.7 170.22 833.7 172.22 833.7 175.06 834.7 177.22 835.7 178.22 845.82 178.22 850.7 178.22 851.7 177.22 852.7 175.22 852.7 172.21 852.7 171.22 850.7 169.22 849.7 169.22 849.7 178.22"/>
          <line class="cls-1" x1="845.7" y1="169.22" x2="845.7" y2="178.22"/>
          <line class="cls-1" x1="841.22" y1="169.22" x2="841.22" y2="178.22"/>
          <line class="cls-1" x1="836.5" y1="178.22" x2="836.5" y2="169.22"/>
        </g>
      </g>
    </g>
    <polyline class="cls-1" points="1183.5 137 1185.5 136 1185.5 48 1183.5 47.01"/>
    <g id="_3_ряда_бочек_в_верху_задней_часте" data-name="3 ряда бочек в верху задней часте">
      <g id="_3_бочки-5" data-name="3 бочки">
        <g id="_Бочка-13" data-name="Бочка">
          <polyline class="cls-1" points="220.44 11.53 205.44 11.53 204.44 12.53 203.44 14.53 203.44 17.37 204.44 19.53 205.44 20.53 215.56 20.53 220.44 20.53 221.44 19.53 222.44 17.53 222.44 14.52 222.44 13.53 220.44 11.53 219.44 11.53 219.44 20.53"/>
          <line class="cls-1" x1="215.44" y1="11.53" x2="215.44" y2="20.53"/>
          <line class="cls-1" x1="210.97" y1="11.53" x2="210.97" y2="20.53"/>
          <line class="cls-1" x1="206.24" y1="20.53" x2="206.24" y2="11.53"/>
        </g>
        <g id="_Бочка-14" data-name="Бочка">
          <polyline class="cls-1" points="220.68 21.44 205.68 21.44 204.68 22.44 203.68 24.44 203.68 27.28 204.68 29.44 205.68 30.44 215.8 30.44 220.68 30.44 221.68 29.44 222.68 27.44 222.68 24.43 222.68 23.44 220.68 21.44 219.68 21.44 219.68 30.44"/>
          <line class="cls-1" x1="215.68" y1="21.44" x2="215.68" y2="30.44"/>
          <line class="cls-1" x1="211.2" y1="21.44" x2="211.2" y2="30.44"/>
          <line class="cls-1" x1="206.48" y1="30.44" x2="206.48" y2="21.44"/>
        </g>
        <g id="_Бочка-15" data-name="Бочка">
          <polyline class="cls-1" points="220.64 31.32 205.64 31.32 204.64 32.32 203.64 34.32 203.64 37.16 204.64 39.32 205.64 40.32 215.76 40.32 220.64 40.32 221.64 39.32 222.64 37.32 222.64 34.31 222.64 33.32 220.64 31.32 219.64 31.32 219.64 40.32"/>
          <line class="cls-1" x1="215.64" y1="31.32" x2="215.64" y2="40.32"/>
          <line class="cls-1" x1="211.17" y1="31.32" x2="211.17" y2="40.32"/>
          <line class="cls-1" x1="206.44" y1="40.32" x2="206.44" y2="31.32"/>
        </g>
      </g>
      <g id="_3_бочки-6" data-name="3 бочки">
        <g id="_Бочка-16" data-name="Бочка">
          <polyline class="cls-1" points="245.57 7.96 230.57 7.96 229.57 8.96 228.57 10.96 228.57 13.8 229.57 15.96 230.57 16.96 240.69 16.96 245.57 16.96 246.57 15.96 247.57 13.96 247.57 10.95 247.57 9.96 245.57 7.96 244.57 7.96 244.57 16.96"/>
          <line class="cls-1" x1="240.57" y1="7.96" x2="240.57" y2="16.96"/>
          <line class="cls-1" x1="236.09" y1="7.96" x2="236.09" y2="16.96"/>
          <line class="cls-1" x1="231.37" y1="16.96" x2="231.37" y2="7.96"/>
        </g>
        <g id="_Бочка-17" data-name="Бочка">
          <polyline class="cls-1" points="245.81 17.87 230.81 17.87 229.81 18.87 228.81 20.87 228.81 23.71 229.81 25.87 230.81 26.87 240.93 26.87 245.81 26.87 246.81 25.87 247.81 23.87 247.81 20.86 247.81 19.87 245.81 17.87 244.81 17.87 244.81 26.87"/>
          <line class="cls-1" x1="240.81" y1="17.87" x2="240.81" y2="26.87"/>
          <line class="cls-1" x1="236.33" y1="17.87" x2="236.33" y2="26.87"/>
          <line class="cls-1" x1="231.61" y1="26.87" x2="231.61" y2="17.87"/>
        </g>
        <g id="_Бочка-18" data-name="Бочка">
          <polyline class="cls-1" points="245.77 27.74 230.77 27.74 229.77 28.74 228.77 30.74 228.77 33.59 229.77 35.74 230.77 36.74 240.89 36.74 245.77 36.74 246.77 35.74 247.77 33.74 247.77 30.73 247.77 29.74 245.77 27.74 244.77 27.74 244.77 36.74"/>
          <line class="cls-1" x1="240.77" y1="27.74" x2="240.77" y2="36.74"/>
          <line class="cls-1" x1="236.29" y1="27.74" x2="236.29" y2="36.74"/>
          <line class="cls-1" x1="231.57" y1="36.74" x2="231.57" y2="27.74"/>
        </g>
      </g>
      <g id="_3_бочки-7" data-name="3 бочки">
        <g id="_Бочка-19" data-name="Бочка">
          <polyline class="cls-1" points="271.3 5.7 256.3 5.7 255.3 6.7 254.3 8.7 254.3 11.54 255.3 13.7 256.3 14.7 266.41 14.7 271.3 14.7 272.3 13.7 273.3 11.7 273.3 8.69 273.3 7.7 271.3 5.7 270.3 5.7 270.3 14.7"/>
          <line class="cls-1" x1="266.3" y1="5.7" x2="266.3" y2="14.7"/>
          <line class="cls-1" x1="261.82" y1="5.7" x2="261.82" y2="14.7"/>
          <line class="cls-1" x1="257.09" y1="14.7" x2="257.09" y2="5.7"/>
        </g>
        <g id="_Бочка-20" data-name="Бочка">
          <polyline class="cls-1" points="271.53 15.61 256.53 15.61 255.53 16.61 254.53 18.61 254.53 21.45 255.53 23.61 256.53 24.61 266.65 24.61 271.53 24.61 272.53 23.61 273.53 21.61 273.53 18.6 273.53 17.61 271.53 15.61 270.53 15.61 270.53 24.61"/>
          <line class="cls-1" x1="266.53" y1="15.61" x2="266.53" y2="24.61"/>
          <line class="cls-1" x1="262.06" y1="15.61" x2="262.06" y2="24.61"/>
          <line class="cls-1" x1="257.33" y1="24.61" x2="257.33" y2="15.61"/>
        </g>
        <g id="_Бочка-21" data-name="Бочка">
          <polyline class="cls-1" points="271.5 25.49 256.5 25.49 255.5 26.49 254.5 28.49 254.5 31.33 255.5 33.49 256.5 34.49 266.61 34.49 271.5 34.49 272.5 33.49 273.5 31.49 273.5 28.48 273.5 27.49 271.5 25.49 270.5 25.49 270.5 34.49"/>
          <line class="cls-1" x1="266.5" y1="25.49" x2="266.5" y2="34.49"/>
          <line class="cls-1" x1="262.02" y1="25.49" x2="262.02" y2="34.49"/>
          <line class="cls-1" x1="257.29" y1="34.49" x2="257.29" y2="25.49"/>
        </g>
      </g>
      <line class="cls-1" x1="203.44" y1="15.89" x2="222.44" y2="15.89"/>
      <line class="cls-1" x1="203.44" y1="25.51" x2="222.44" y2="25.51"/>
      <line class="cls-1" x1="203.64" y1="35.5" x2="222.64" y2="35.5"/>
      <line class="cls-1" x1="228.57" y1="13.07" x2="247.57" y2="13.07"/>
      <line class="cls-1" x1="228.57" y1="22.95" x2="247.77" y2="22.95"/>
      <line class="cls-1" x1="228.81" y1="32.56" x2="247.81" y2="32.56"/>
      <line class="cls-1" x1="254.53" y1="10.82" x2="273.72" y2="10.82"/>
      <line class="cls-1" x1="254.5" y1="20.53" x2="273.72" y2="20.53"/>
      <line class="cls-1" x1="254.53" y1="30.31" x2="273.5" y2="30.31"/>
    </g>
    <g id="_3_ряда_бочек_в_низу_задней_часте" data-name="3 ряда бочек в низу задней часте">
      <g id="_3_бочки-8" data-name="3 бочки">
        <g id="_Бочка-22" data-name="Бочка">
          <polyline class="cls-1" points="270.95 149.13 255.95 149.13 254.95 150.13 253.95 152.13 253.95 154.97 254.95 157.13 255.95 158.13 266.07 158.13 270.95 158.13 271.95 157.13 272.95 155.13 272.95 152.12 272.95 151.13 270.95 149.13 269.95 149.13 269.95 158.13"/>
          <line class="cls-1" x1="265.95" y1="149.13" x2="265.95" y2="158.13"/>
          <line class="cls-1" x1="261.48" y1="149.13" x2="261.48" y2="158.13"/>
          <line class="cls-1" x1="256.75" y1="158.13" x2="256.75" y2="149.13"/>
        </g>
        <g id="_Бочка-23" data-name="Бочка">
          <polyline class="cls-1" points="271.19 159.04 256.19 159.04 255.19 160.04 254.19 162.04 254.19 164.88 255.19 167.04 256.19 168.04 266.31 168.04 271.19 168.04 272.19 167.04 273.19 165.04 273.19 162.03 273.19 161.04 271.19 159.04 270.19 159.04 270.19 168.04"/>
          <line class="cls-1" x1="266.19" y1="159.04" x2="266.19" y2="168.04"/>
          <line class="cls-1" x1="261.72" y1="159.04" x2="261.72" y2="168.04"/>
          <line class="cls-1" x1="256.99" y1="168.04" x2="256.99" y2="159.04"/>
        </g>
        <g id="_Бочка-24" data-name="Бочка">
          <polyline class="cls-1" points="271.15 168.91 256.15 168.91 255.15 169.91 254.15 171.91 254.15 174.76 255.15 176.91 256.15 177.91 266.27 177.91 271.15 177.91 272.15 176.91 273.15 174.91 273.15 171.9 273.15 170.91 271.15 168.91 270.15 168.91 270.15 177.91"/>
          <line class="cls-1" x1="266.15" y1="168.91" x2="266.15" y2="177.91"/>
          <line class="cls-1" x1="261.68" y1="168.91" x2="261.68" y2="177.91"/>
          <line class="cls-1" x1="256.95" y1="177.91" x2="256.95" y2="168.91"/>
        </g>
      </g>
      <g id="_3_бочки-9" data-name="3 бочки">
        <g id="_Бочка-25" data-name="Бочка">
          <polyline class="cls-1" points="245.83 147.68 230.83 147.68 229.83 148.68 228.83 150.68 228.83 153.52 229.83 155.68 230.83 156.68 240.94 156.68 245.83 156.68 246.83 155.68 247.83 153.68 247.83 150.67 247.83 149.68 245.83 147.68 244.83 147.68 244.83 156.68"/>
          <line class="cls-1" x1="240.83" y1="147.68" x2="240.83" y2="156.68"/>
          <line class="cls-1" x1="236.35" y1="147.68" x2="236.35" y2="156.68"/>
          <line class="cls-1" x1="231.62" y1="156.68" x2="231.62" y2="147.68"/>
        </g>
        <g id="_Бочка-26" data-name="Бочка">
          <polyline class="cls-1" points="246.07 157.59 231.07 157.59 230.07 158.59 229.07 160.59 229.07 163.43 230.07 165.59 231.07 166.59 241.18 166.59 246.07 166.59 247.07 165.59 248.07 163.59 248.07 160.58 248.07 159.59 246.07 157.59 245.07 157.59 245.07 166.59"/>
          <line class="cls-1" x1="241.07" y1="157.59" x2="241.07" y2="166.59"/>
          <line class="cls-1" x1="236.59" y1="157.59" x2="236.59" y2="166.59"/>
          <line class="cls-1" x1="231.86" y1="166.59" x2="231.86" y2="157.59"/>
        </g>
        <g id="_Бочка-27" data-name="Бочка">
          <polyline class="cls-1" points="246.03 167.47 231.03 167.47 230.03 168.47 229.03 170.47 229.03 173.31 230.03 175.47 231.03 176.47 241.14 176.47 246.03 176.47 247.03 175.47 248.03 173.47 248.03 170.46 248.03 169.47 246.03 167.47 245.03 167.47 245.03 176.47"/>
          <line class="cls-1" x1="241.03" y1="167.47" x2="241.03" y2="176.47"/>
          <line class="cls-1" x1="236.55" y1="167.47" x2="236.55" y2="176.47"/>
          <line class="cls-1" x1="231.82" y1="176.47" x2="231.82" y2="167.47"/>
        </g>
      </g>
      <g id="_3_бочки-10" data-name="3 бочки">
        <g id="_Бочка-28" data-name="Бочка">
          <polyline class="cls-1" points="220.14 144.22 205.14 144.22 204.14 145.22 203.14 147.22 203.14 150.06 204.14 152.22 205.14 153.22 215.25 153.22 220.14 153.22 221.14 152.22 222.14 150.22 222.14 147.21 222.14 146.22 220.14 144.22 219.14 144.22 219.14 153.22"/>
          <line class="cls-1" x1="215.14" y1="144.22" x2="215.14" y2="153.22"/>
          <line class="cls-1" x1="210.66" y1="144.22" x2="210.66" y2="153.22"/>
          <line class="cls-1" x1="205.93" y1="153.22" x2="205.93" y2="144.22"/>
        </g>
        <g id="_Бочка-29" data-name="Бочка">
          <polyline class="cls-1" points="220.38 154.13 205.38 154.13 204.38 155.13 203.38 157.13 203.38 159.97 204.38 162.13 205.38 163.13 215.49 163.13 220.38 163.13 221.38 162.13 222.38 160.13 222.38 157.12 222.38 156.13 220.38 154.13 219.38 154.13 219.38 163.13"/>
          <line class="cls-1" x1="215.38" y1="154.13" x2="215.38" y2="163.13"/>
          <line class="cls-1" x1="210.9" y1="154.13" x2="210.9" y2="163.13"/>
          <line class="cls-1" x1="206.17" y1="163.13" x2="206.17" y2="154.13"/>
        </g>
        <g id="_Бочка-30" data-name="Бочка">
          <polyline class="cls-1" points="220.34 164.01 205.34 164.01 204.34 165.01 203.34 167.01 203.34 169.85 204.34 172.01 205.34 173.01 215.45 173.01 220.34 173.01 221.34 172.01 222.34 170.01 222.34 167 222.34 166.01 220.34 164.01 219.34 164.01 219.34 173.01"/>
          <line class="cls-1" x1="215.34" y1="164.01" x2="215.34" y2="173.01"/>
          <line class="cls-1" x1="210.86" y1="164.01" x2="210.86" y2="173.01"/>
          <line class="cls-1" x1="206.13" y1="173.01" x2="206.13" y2="164.01"/>
        </g>
      </g>
      <line class="cls-1" x1="254.19" y1="173.88" x2="273.19" y2="173.88"/>
      <line class="cls-1" x1="254.15" y1="163.93" x2="273.64" y2="163.93"/>
      <line class="cls-1" x1="203.14" y1="149.5" x2="222.38" y2="149.5"/>
      <line class="cls-1" x1="203.38" y1="159.33" x2="222.66" y2="159.33"/>
      <line class="cls-1" x1="203.34" y1="169.16" x2="222.83" y2="169.16"/>
      <line class="cls-1" x1="228.83" y1="152.18" x2="247.83" y2="152.18"/>
      <line class="cls-1" x1="229.07" y1="162.09" x2="248.23" y2="162.09"/>
      <line class="cls-1" x1="229.03" y1="171.97" x2="248.03" y2="171.97"/>
      <line class="cls-1" x1="253.95" y1="154.48" x2="272.95" y2="154.48"/>
    </g>
    <line class="cls-1" x1="805.14" y1="183.02" x2="805.14" y2="146"/>
    <polyline class="cls-1" points="804.96 164.51 803.27 164.51 803.27 147 804.85 145.41"/>
    <polyline class="cls-1" points="830.5 146 830.5 135 828.06 135 828.06 146 825.7 146 825.7 135.14 822.5 135 822.5 146 820.28 146 820.28 135.2 817.78 135.2 817.78 146 815.14 146 815.14 135 812.43 135 812.43 146 809.5 146 809.5 135 807.26 135 807.26 145.8 805.14 145.8 805.14 134"/>
    <polyline class="cls-1" points="805.14 135.3 803.67 133.83 803.67 50 805.13 48.55 822.86 48.55 833.17 48.55 833.64 48.55 833.64 39.49 830.5 39.49 830.55 48.55 827.7 48.55 827.7 39.49 825.61 39.49 825.7 48.55"/>
    <polyline class="cls-1" points="822.86 48.55 822.86 39.23 820.5 39.23 820.5 48.55 817.82 48.55 817.82 39 815.5 39 815.5 48.55 812.52 48.55 812.52 39 810 39 810 48.39 807.35 48.39 807.35 39 805.5 39 805.5 48"/>
    <polyline class="cls-1" points="805.5 39 803.67 37.35 803.67 20 805.5 20 805.5 .71"/>
    <line class="cls-1" x1="833.64" y1="38.48" x2="805.5" y2="38.48"/>
    <polyline class="cls-1" points="833.5 37 805.5 37 805.5 20"/>
    <g id="_Штука_с_дырами" data-name="Штука с дырами">
      <polyline class="cls-1" points="52.5 79 52.5 104.76 53.5 106 75.89 106 77.5 105 77.5 79.61 75.5 78 53.81 78 52.5 79.35"/>
      <polygon class="cls-1" points="59.5 86 59.5 99 61.5 101 69.5 101 71.5 99 71.5 86 70.5 84 61.4 84 59.5 86"/>
      <circle class="cls-1" cx="63" cy="88.5" r="1.5"/>
      <circle class="cls-1" cx="68.5" cy="88.5" r="1.5"/>
      <circle class="cls-1" cx="63" cy="92.3" r="1.5"/>
      <circle class="cls-1" cx="63" cy="96.1" r="1.5"/>
      <circle class="cls-1" cx="68.5" cy="92.3" r="1.5"/>
      <circle class="cls-1" cx="68.5" cy="96.1" r="1.5"/>
      <polyline class="cls-1" points="74.5 78 74.5 74 64.5 74 64.5 78"/>
      <polyline class="cls-1" points="77.5 101.37 81.26 101.37 81.26 93 77.5 93"/>
      <polyline class="cls-1" points="77.5 90 81.26 90 81.26 81 77.5 81"/>
    </g>
    <g id="_Штука_с_дырами_чуть_больше" data-name="Штука с дырами чуть больше">
      <polyline class="cls-1" points="150.5 83 174.96 83 175.5 84 175.5 108 174.5 109 151.72 109 149.5 107 149.5 85 150.5 83"/>
      <rect class="cls-1" x="151.5" y="98" width="10" height="9"/>
      <polyline class="cls-1" points="163.68 98 163.68 107 174.5 107 174.5 98 163.5 98"/>
      <polyline class="cls-1" points="151.5 84.9 151.5 94 161.5 94 161.5 85.41 161.5 84.9 151.66 84.9"/>
      <polyline class="cls-1" points="163.5 85 163.5 94 174.19 94 174.19 84.9 163.5 84.9"/>
      <polyline class="cls-1" points="175.5 94.77 149.5 94.77 145.89 94.77 145.89 87.2 149.5 87.2"/>
      <polyline class="cls-1" points="175.5 103.7 179.5 103.7 179.5 95.88 175.5 95.88"/>
      <polyline class="cls-1" points="149.5 106.69 146.11 106.69 146.11 97.51 149.84 97.51 175.5 97.51"/>
      <g id="_4_дырки" data-name="4 дырки">
        <circle class="cls-1" cx="154.2" cy="87.2" r="1"/>
        <circle class="cls-1" cx="154.2" cy="91.77" r="1"/>
        <circle class="cls-1" cx="159.3" cy="91.77" r="1"/>
        <circle class="cls-1" cx="159.3" cy="87.2" r="1"/>
      </g>
      <g id="_4_дырки-2" data-name="4 дырки">
        <circle class="cls-1" cx="166.55" cy="87.22" r="1"/>
        <circle class="cls-1" cx="166.55" cy="91.78" r="1"/>
        <circle class="cls-1" cx="171.65" cy="91.78" r="1"/>
        <circle class="cls-1" cx="171.65" cy="87.22" r="1"/>
      </g>
      <g id="_4_дырки-3" data-name="4 дырки">
        <circle class="cls-1" cx="153.83" cy="100.81" r="1"/>
        <circle class="cls-1" cx="153.83" cy="105.38" r="1"/>
        <circle class="cls-1" cx="158.93" cy="105.38" r="1"/>
        <circle class="cls-1" cx="158.93" cy="100.81" r="1"/>
      </g>
      <g id="_4_дырки-4" data-name="4 дырки">
        <circle class="cls-1" cx="166.55" cy="100.81" r="1"/>
        <circle class="cls-1" cx="166.55" cy="105.38" r="1"/>
        <circle class="cls-1" cx="171.65" cy="105.38" r="1"/>
        <circle class="cls-1" cx="171.65" cy="100.81" r="1"/>
      </g>
    </g>
    <g>
      <circle class="cls-1" cx="14.7" cy="76" r="4"/>
      <polyline class="cls-1" points="5.5 88 3.5 86 4.15 84 6.5 83 10.5 85 15.5 86 19.5 87 21.5 85 21.5 83 19.5 81 17.5 79"/>
    </g>
    <circle class="cls-1" cx="15" cy="108.5" r="4.5"/>
    <circle class="cls-1" cx="202.5" cy="92.5" r="5.5"/>
    <g id="_Бублики-12" data-name="Бублики">
      <circle class="cls-1" cx="55.26" cy="38.12" r="3.5"/>
      <rect class="cls-2" x="54.26" y="35.62" width="2" height="5"/>
    </g>
    <circle class="cls-1" cx="438.3" cy="92.51" r="5.5"/>
    <circle class="cls-1" cx="766" cy="92.65" r="5.5"/>
    <g>
      <circle class="cls-1" cx="189.6" cy="18.3" r="5.5"/>
      <rect class="cls-2" x="185.5" y="15" width="3" height="7"/>
      <rect class="cls-2" x="188.5" y="13" width="3" height="11"/>
    </g>
    <g id="_Бублики-13" data-name="Бублики">
      <circle class="cls-1" cx="201.12" cy="29.77" r="3.5"/>
      <rect class="cls-2" x="200.12" y="27.27" width="2" height="5"/>
    </g>
    <circle class="cls-1" cx="625.5" cy="174" r="5"/>
    <circle class="cls-1" cx="625.5" cy="174" r="3"/>
    <circle class="cls-1" cx="615.5" cy="169" r="2"/>
    <polyline class="cls-1" points="615.5 171 615.5 176.48 616.5 178 617.5 179 618.5 178 620.5 178 621.97 177.54"/>
    <circle class="cls-1" cx="625.5" cy="10.7" r="5"/>
    <circle class="cls-1" cx="625.5" cy="10.7" r="3"/>
    <circle class="cls-1" cx="615.5" cy="6" r="2"/>
    <polyline class="cls-1" points="615.28 7.98 615.28 13.29 615.5 15 616.88 15.7 618.06 15.7 619.5 15 621.5 14"/>
    <g>
      <polyline class="cls-1" points="742.5 87 742.5 98.15 754.5 98.15 754.5 86.76 742.5 86.76"/>
      <rect class="cls-1" x="744.5" y="88" width="9" height="8.81"/>
      <circle class="cls-1" cx="746.2" cy="90.2" r="1.5"/>
      <circle class="cls-1" cx="751.2" cy="90.2" r="1.5"/>
      <circle class="cls-1" cx="751.2" cy="95.2" r="1.5"/>
      <circle class="cls-1" cx="746.2" cy="95.2" r="1.5"/>
    </g>
    <g>
      <polyline class="cls-1" points="709.5 87 709.5 96.81 711.5 99 719.5 99 721.5 97 721.5 87 719.5 86 710.96 86 709.5 87"/>
      <polyline class="cls-1" points="709.5 90.01 703.5 90.01 703.5 82 708.02 82 708.02 90 708.02 87.12 709.5 87.12"/>
      <polyline class="cls-1" points="711.5 86 711.5 80 720.5 80 720.5 86"/>
      <line class="cls-1" x1="711.5" y1="83.91" x2="720.5" y2="83.91"/>
    </g>
    <g>
      <polyline class="cls-1" points="624.5 74 624.5 60.39 600.5 60.39 600.5 74 624.7 74"/>
      <line class="cls-1" x1="615.6" y1="60.39" x2="615.6" y2="74"/>
      <polyline class="cls-1" points="602.19 74 602.19 78 609.85 78 611.04 78 611.04 80.52 612.5 80.52 612.5 76 611.5 75 611.5 74"/>
      <polyline class="cls-1" points="600.32 71.12 597.5 64 600.8 63.39 610.28 63.39 610.28 71.12 600.5 71.12"/>
      <polyline class="cls-1" points="614.5 74 614.5 81 618.5 79 621.5 81 621.5 74"/>
    </g>
    <g>
      <polyline class="cls-1" points="624.47 110.6 624.47 124.2 600.47 124.2 600.47 110.6 624.67 110.6"/>
      <line class="cls-1" x1="615.56" y1="124.2" x2="615.56" y2="110.6"/>
      <polyline class="cls-1" points="602.16 110.6 602.16 106.6 609.82 106.6 611.01 106.6 611.01 104.08 612.47 104.08 612.47 108.6 611.47 109.6 611.47 110.6"/>
      <polyline class="cls-1" points="600.29 113.48 597.47 120.6 600.76 121.2 610.24 121.2 610.24 113.48 600.47 113.48"/>
      <polyline class="cls-1" points="614.47 110.6 614.47 103.6 618.47 105.6 621.47 103.6 621.47 110.6"/>
    </g>
    <g>
      <polyline class="cls-1" points="281.5 175 281.5 169 284.74 169 284.74 175"/>
      <line class="cls-1" x1="284.74" y1="173.18" x2="281.66" y2="173.18"/>
      <line class="cls-1" x1="284.74" y1="170.95" x2="281.66" y2="170.95"/>
    </g>
    <g>
      <polyline class="cls-1" points="281.58 16.9 281.58 10.9 284.82 10.9 284.82 16.9"/>
      <line class="cls-1" x1="284.82" y1="15.08" x2="281.74" y2="15.08"/>
      <line class="cls-1" x1="284.82" y1="12.85" x2="281.74" y2="12.85"/>
    </g>
    <g>
      <polyline class="cls-1" points="660.5 112 636.5 112 636.5 73 659.5 73 659.5 85 649.5 85 649.5 99.88 659.97 99.88 659.94 112"/>
      <line class="cls-1" x1="659.5" y1="85" x2="659.5" y2="99.88"/>
      <polyline class="cls-1" points="659.95 105.63 661.72 105.63 661.72 103 662.45 103 662.45 82 661.5 82 661.5 79 659.95 79"/>
      <polyline class="cls-1" points="639.89 73 639.89 112 641.5 112 641.5 73 644.23 73 644.23 111.59 646.5 111.59 646.5 73 648.5 73 648.5 111.67 650.5 111.67 650.5 99.88 652.74 99.88 652.74 111.71 654.5 111.71 654.5 100 657.04 100 657.04 111.59"/>
      <polyline class="cls-1" points="650.5 73 650.5 85 652.6 85 652.6 73 654.96 73 654.96 85 657.5 85 657.5 73"/>
      <polyline class="cls-1" points="659.94 108.68 636.5 108.68 636.5 106.54 659.95 106.54 659.95 104 636.5 104 636.5 102.11 659.68 102.11 659.68 100 636.5 100 636.5 98 648.5 98 648.5 95.85 636.73 95.85 636.73 94 648.5 94 648.5 91.38 636.5 91.38 636.5 89 648.5 89 648.5 86.76 636.5 86.76 636.5 84.49 648.47 84.49 648.47 82.26 636.64 82.26 659.5 82.26 659.5 80.21 636.77 80.21 636.77 78 659.5 78 659.5 76.19 636.5 76.19"/>
    </g>
    <g>
      <polyline class="cls-1" points="583.5 127 583.21 127 450.5 127 445.5 124 445.5 61 449.5 57 584.23 57 587.98 60.39 587.98 122.95 587.98 124.61 583.5 127"/>
      <polyline class="cls-1" points="477.17 127 477.17 112 538.5 112 538.5 127 538.5 57 482.62 57 482.4 112"/>
      <line class="cls-1" x1="482.5" y1="101" x2="446.28" y2="101"/>
      <polyline class="cls-1" points="445.5 63.71 441.72 63.71 441.72 74 445.68 74"/>
      <polyline class="cls-1" points="445.5 76.67 441.72 76.67 441.72 86 445.68 86"/>
      <polyline class="cls-1" points="520.4 127 520.4 136 529.5 136 529.5 127"/>
      <polyline class="cls-1" points="489.5 127 489.5 131 498.5 131 498.5 127"/>
      <g>
        <polyline class="cls-1" points="465.64 127 465.64 137 487.51 137 487.51 127.5 465.5 127.5"/>
        <polyline class="cls-1" points="468.5 137 468.5 127 471.98 127 471.98 136.86 475.5 136.86 475.5 127.24 478.02 127.24 478.02 137 480.5 137 480.5 127 483.5 127 483.5 137 485.64 137 485.64 127"/>
        <line class="cls-1" x1="473.65" y1="137" x2="473.65" y2="127"/>
        <line class="cls-1" x1="470.23" y1="137" x2="470.23" y2="127"/>
      </g>
      <g>
        <polyline class="cls-1" points="477.17 114.23 496.5 114.23 496.5 124 477.17 124"/>
        <polyline class="cls-1" points="479.01 124 479.01 114.23 480.96 114.23 480.96 124 482.81 124 482.81 114.23 484.72 114.23 484.72 124 486.84 124 486.84 114.07 488.84 114.07 488.84 124 490.5 124 490.5 114.23 492.67 114.23 492.67 124 494.5 124 494.5 114.23"/>
      </g>
      <g>
        <rect class="cls-1" x="546.5" y="104" width="15.62" height="7"/>
        <line class="cls-1" x1="549.13" y1="111" x2="549.13" y2="104"/>
        <polyline class="cls-1" points="550.5 111 550.5 104 552.89 104 552.89 110.76 554.31 110.76 554.31 103.77 556.5 103.77 556.5 111 558.1 111 558.1 103.64 559.5 103.64 559.5 111"/>
      </g>
      <g>
        <polyline class="cls-1" points="487.5 57 487.5 47.24 470.07 47.24 466.5 47.24 466.5 57 468.19 57 468.19 47"/>
        <line class="cls-1" x1="470.07" y1="57" x2="470.07" y2="47.24"/>
        <line class="cls-1" x1="471.77" y1="57" x2="471.77" y2="47"/>
        <line class="cls-1" x1="473.5" y1="57" x2="473.5" y2="47.24"/>
        <line class="cls-1" x1="475.79" y1="57" x2="475.79" y2="47.24"/>
        <line class="cls-1" x1="478.05" y1="57" x2="478.05" y2="47.24"/>
        <line class="cls-1" x1="480.03" y1="57" x2="480.03" y2="47.24"/>
        <line class="cls-1" x1="481.79" y1="57" x2="481.79" y2="47.24"/>
        <line class="cls-1" x1="483.5" y1="57" x2="483.5" y2="47.24"/>
        <line class="cls-1" x1="485.52" y1="57" x2="485.52" y2="47.24"/>
      </g>
    </g>
    <polyline class="cls-1" points="368.5 126 368.32 126 241.5 126 239.5 125 238.5 122 238.5 63 239.5 60 242.5 59 366.5 59 368.5 59 369.5 60 371.5 63 371.5 123 370.5 124 367.5 126"/>
    <polyline class="cls-1" points="304.32 126 304.32 89 287.5 89 287.5 59 287.5 100 268.5 100 268.5 112 238.5 112"/>
    <line class="cls-1" x1="304.32" y1="88.48" x2="314.5" y2="77"/>
    <polyline class="cls-1" points="314.5 77 329.8 59 329.8 77 314.11 59 314.5 77 345.5 77 345.5 59 345.5 126"/>
    <line class="cls-1" x1="345.5" y1="99.88" x2="305" y2="99.88"/>
    <line class="cls-1" x1="345.5" y1="84.01" x2="371.5" y2="84.01"/>
    <polyline class="cls-1" points="257.43 126 257.5 130 265.5 130 265.5 126.23 265.5 112"/>
    <polyline class="cls-1" points="265.5 130 267.5 132 267.5 129.3 271.12 129.3 271.12 131.85 279.16 126"/>
    <polyline class="cls-1" points="353.04 126 353.04 130.99 362.87 126"/>
    <polyline class="cls-1" points="325.5 59 316.5 54 316.5 59"/>
    <polyline class="cls-1" points="341.5 59 332.5 54 332.5 59"/>
    <polyline class="cls-1" points="363.5 59 354.5 53 354.5 58.73"/>
    <polyline class="cls-1" points="238.5 121.41 233.5 112 238.5 112"/>
    <line class="cls-1" x1="245.04" y1="126" x2="245.04" y2="112"/>
    <polyline class="cls-1" points="238.5 83 234.5 83 234.5 90 238.5 90"/>
    <polyline class="cls-1" points="238.5 94.03 234.7 94.03 234.7 102 231.5 104 235.79 104 236.5 102.52 238.5 102.52"/>
    <polyline class="cls-1" points="302.74 88.48 294.5 84 294.5 88.73"/>
    <polyline class="cls-1" points="304.32 101.56 309.5 111 304.32 111"/>
    <polyline class="cls-1" points="304.5 98 309.5 90.01 304.5 90.01"/>
    <polyline class="cls-1" points="281.5 100 273.5 95 273.5 100.13"/>
    <line class="cls-1" x1="371.5" y1="71.2" x2="376.5" y2="71.2"/>
    <line class="cls-1" x1="371.5" y1="78.61" x2="376.5" y2="78.61"/>
    <line class="cls-1" x1="373.68" y1="71.2" x2="373.68" y2="78.35"/>
    <polyline class="cls-1" points="371.5 101 378.87 101 378.87 83.46 371.77 83.46"/>
    <polyline class="cls-1" points="371.5 84.82 377.5 84.82 377.5 91 376.5 91 376.5 94 377.5 94 377.5 101"/>
    <polyline class="cls-1" points="371.5 90.56 373.5 90.56 373.5 95 371.5 95"/>
    <line class="cls-1" x1="371.5" y1="98" x2="377.5" y2="98"/>
    <line class="cls-1" x1="377.5" y1="99" x2="372.02" y2="99"/>
    <line class="cls-1" x1="377.5" y1="96.05" x2="372.02" y2="96.05"/>
    <line class="cls-1" x1="377.5" y1="88.69" x2="371.81" y2="88.69"/>
    <line class="cls-1" x1="371.81" y1="86.1" x2="377.5" y2="86.1"/>
    <line class="cls-1" x1="377.5" y1="86.99" x2="371.81" y2="86.99"/>
    <g>
      <line class="cls-1" x1="245.04" y1="113.37" x2="265.5" y2="113.37"/>
      <line class="cls-1" x1="245.04" y1="122.02" x2="265.5" y2="122.02"/>
      <line class="cls-1" x1="246.5" y1="122" x2="246.5" y2="113.37"/>
      <line class="cls-1" x1="248.5" y1="122" x2="248.5" y2="113.37"/>
      <line class="cls-1" x1="250.5" y1="122" x2="250.5" y2="113.37"/>
      <line class="cls-1" x1="252.77" y1="122" x2="252.77" y2="113.5"/>
      <line class="cls-1" x1="254.65" y1="122.02" x2="254.65" y2="113.37"/>
      <line class="cls-1" x1="256.5" y1="122" x2="256.5" y2="113.37"/>
      <line class="cls-1" x1="258.5" y1="122" x2="258.5" y2="113.37"/>
      <line class="cls-1" x1="260.5" y1="122" x2="260.5" y2="113.5"/>
      <line class="cls-1" x1="262.5" y1="122" x2="262.5" y2="113.5"/>
      <line class="cls-1" x1="264.5" y1="122" x2="264.5" y2="113.37"/>
    </g>
    <g>
      <polyline class="cls-1" points="304.32 122.82 283.5 122.82 283.5 113 304.32 113"/>
      <line class="cls-1" x1="285.5" y1="123" x2="285.5" y2="113"/>
      <line class="cls-1" x1="287.68" y1="122.82" x2="287.68" y2="113"/>
      <line class="cls-1" x1="289.5" y1="123" x2="289.5" y2="113"/>
      <line class="cls-1" x1="291.96" y1="122.82" x2="291.96" y2="113"/>
      <line class="cls-1" x1="293.91" y1="122.5" x2="293.91" y2="113"/>
      <line class="cls-1" x1="295.5" y1="123" x2="295.5" y2="113"/>
      <line class="cls-1" x1="297.64" y1="122.5" x2="297.64" y2="113"/>
      <line class="cls-1" x1="299.49" y1="122.5" x2="299.49" y2="113"/>
      <line class="cls-1" x1="301.5" y1="123" x2="301.5" y2="113"/>
      <line class="cls-1" x1="303.5" y1="123" x2="303.5" y2="113"/>
    </g>
    <circle class="cls-1" cx="796" cy="66" r="3.5"/>
    <circle class="cls-1" cx="796" cy="118" r="5"/>
    <circle class="cls-1" cx="796" cy="118.5" r="3"/>
    <circle class="cls-1" cx="785" cy="115" r="2"/>
    <polyline class="cls-1" points="784.83 116.99 784.83 121.37 785.5 122 786.5 123 788.5 123 790.5 122 792.1 121.13"/>
  </g>
</svg>